<svg width="172" height="29" viewBox="0 0 172 29" fill="none" xmlns="http://www.w3.org/2000/svg">
<g>
		<path fill="#FFFFFF" d="M82.9,17.3c0,0.1,0.2,0.3,0.4,0.6c0.2,0.3,0.5,0.6,0.8,1c0.3,0.4,0.6,0.7,0.9,1c0.3,0.3,0.5,0.6,0.6,0.7
			c0.4,0.5,0.7,1,1.1,1.5c0.4,0.5,0.7,1,1.1,1.6c0.1,0.1,0.2,0.2,0.2,0.3c0.1,0.1,0.1,0.3,0.1,0.4c0,0.2,0,0.3-0.1,0.3
			c-0.1,0-0.2,0-0.3,0.1c-0.2,0.1-0.4,0.2-0.5,0.2c-0.1,0-0.3,0-0.4,0c-0.2,0-0.4,0-0.7,0c-0.2,0-0.4,0-0.6,0
			c-0.1,0-0.1,0.1-0.2,0.1c-0.1,0-0.1,0.1-0.2,0.1c-0.1,0-0.3,0-0.3-0.1c-0.1,0-0.2-0.1-0.3-0.1c-0.1-0.2-0.3-0.3-0.4-0.5
			c-0.1-0.2-0.2-0.4-0.4-0.6c-0.1-0.1-0.2-0.2-0.4-0.3s-0.2-0.2-0.4-0.4c-0.3-0.4-0.6-0.8-0.9-1.2s-0.6-0.8-0.9-1.2
			c-0.1-0.2-0.3-0.4-0.5-0.6c-0.2-0.2-0.3-0.4-0.5-0.6c-0.1-0.2-0.3-0.4-0.4-0.6c-0.1-0.2-0.3-0.4-0.4-0.6c-0.1-0.2-0.3-0.4-0.5-0.7
			s-0.4-0.5-0.6-0.8c-0.2-0.3-0.4-0.5-0.7-0.8c-0.2-0.2-0.4-0.4-0.6-0.6c0-0.1,0-0.2-0.1-0.3c-0.1-0.1-0.2-0.1-0.2-0.2
			c0-0.1-0.1-0.2-0.1-0.3s-0.1-0.2-0.1-0.3c0-0.1,0-0.1,0-0.2c0-0.1,0-0.1,0.1-0.2c0-0.1,0.1-0.1,0.1-0.2c0-0.1,0-0.1,0.1-0.2
			c0.1-0.2,0.2-0.5,0.4-0.6c0.2-0.2,0.3-0.4,0.4-0.6c0-0.1,0-0.1,0-0.2c0-0.1,0-0.1,0.1-0.2c0.1-0.1,0.1-0.2,0.2-0.3
			s0.2-0.2,0.3-0.4c0.1-0.2,0.2-0.3,0.3-0.5c0.1-0.2,0.2-0.3,0.3-0.5c0.3-0.4,0.5-0.8,0.9-1.2c0.3-0.4,0.6-0.8,0.9-1.2
			c0.3-0.4,0.5-0.7,0.7-1.1c0.2-0.4,0.5-0.7,0.7-1.1c0.1-0.2,0.3-0.4,0.4-0.6c0.2-0.2,0.3-0.5,0.5-0.7c0.2-0.2,0.4-0.4,0.5-0.6
			c0.2-0.2,0.4-0.3,0.6-0.4c0.3,0,0.5,0,0.6,0.2c0.1,0.1,0.2,0.2,0.4,0.2c0.3,0.1,0.4,0.1,0.5,0.2c0.1,0.1,0.2,0.2,0.3,0.3
			c0.2,0,0.4,0,0.6,0.1c0.2,0.1,0.3,0.2,0.5,0.4c-0.1,0.2-0.2,0.4-0.3,0.6c-0.1,0.2-0.2,0.3-0.3,0.5C86.1,6,86,6.1,86,6.3
			c-0.1,0.1-0.2,0.2-0.3,0.3c-0.2,0.3-0.4,0.6-0.6,0.9c-0.2,0.3-0.4,0.6-0.6,0.9c-0.1,0.1-0.2,0.2-0.3,0.3C84,8.7,83.9,8.8,83.8,9
			c0,0.1-0.1,0.1-0.1,0.2c0,0.1,0,0.1-0.1,0.2c-0.2,0.4-0.5,0.7-0.8,1c-0.3,0.3-0.5,0.7-0.7,1.1c-0.1,0.1-0.2,0.3-0.2,0.4
			c-0.1,0.1-0.1,0.3-0.2,0.4c-0.1,0.1-0.2,0.3-0.3,0.5c-0.1,0.2-0.3,0.4-0.4,0.6c-0.1,0.2-0.3,0.4-0.4,0.6c-0.1,0.2-0.2,0.4-0.2,0.5
			c0,0.1,0.1,0.3,0.4,0.6s0.5,0.6,0.7,0.9c0.3,0.3,0.5,0.6,0.8,0.9C82.7,17,82.8,17.2,82.9,17.3z"/>
		<path fill="#FFFFFF" d="M102.8,13.8c0,0.1-0.1,0.1-0.1,0.2c0,0.1-0.1,0.1-0.1,0.2c0.1,0.1,0.1,0.2,0.2,0.2
			c0.1,0.1,0.1,0.2,0.1,0.3c0,0.1,0,0.1,0,0.2s0,0.1,0,0.2c-0.1,0.1-0.2,0.2-0.2,0.4c-0.1,0.1-0.1,0.2-0.2,0.4
			c-0.1,0.1-0.1,0.1-0.2,0.2c0,0.1-0.1,0.1-0.1,0.2c-0.1,0-0.2,0.1-0.2,0.2s-0.1,0.2-0.2,0.2c0,0.1-0.1,0.3-0.3,0.5
			s-0.4,0.6-0.6,0.9c-0.2,0.3-0.4,0.6-0.6,0.9c-0.2,0.3-0.3,0.5-0.4,0.6c0,0.1-0.1,0.2-0.1,0.2s-0.1,0.1-0.2,0.2
			c0,0.1-0.1,0.1-0.1,0.2c0,0.1,0,0.1-0.1,0.2c0,0.1-0.1,0.1-0.1,0.2c0,0.1-0.1,0.1-0.1,0.2c-0.2,0.2-0.4,0.5-0.6,0.9
			c-0.2,0.3-0.4,0.6-0.5,0.9c-0.1,0.1-0.2,0.3-0.3,0.4s-0.2,0.3-0.3,0.4c-0.1,0.1-0.2,0.3-0.3,0.4c-0.1,0.1-0.2,0.3-0.3,0.4
			c-0.1,0.1-0.3,0.2-0.4,0.4c-0.1,0.2-0.2,0.3-0.4,0.4c-0.2,0-0.4-0.1-0.4-0.3c-0.2-0.1-0.4-0.1-0.4,0s0,0.1,0,0.1
			c-0.1,0-0.1,0.1-0.2,0.2c0,0.1-0.1,0.1-0.2,0.2c-0.1,0-0.3-0.1-0.4-0.2c-0.1-0.1-0.2-0.1-0.4-0.1c-0.1-0.1-0.2-0.2-0.2-0.3
			c-0.1-0.1-0.2-0.2-0.2-0.3c0-0.1-0.1-0.2-0.2-0.3c-0.1-0.1-0.1-0.1-0.2-0.2c-0.1-0.1-0.1-0.2-0.2-0.2s-0.1-0.1-0.2-0.2
			c-0.1-0.2-0.3-0.3-0.4-0.5c-0.1-0.2-0.2-0.3-0.3-0.5c-0.1-0.2-0.3-0.4-0.4-0.7c-0.1-0.2-0.3-0.5-0.4-0.7c-0.1-0.1-0.1-0.2-0.2-0.3
			c-0.1-0.1-0.1-0.2-0.2-0.3c0-0.1-0.1-0.2-0.2-0.3c-0.1-0.1-0.1-0.2-0.2-0.2c0-0.1-0.1-0.3-0.2-0.3c-0.1-0.1-0.2-0.2-0.3-0.3
			c-0.1-0.1-0.2-0.3-0.4-0.5c-0.1-0.2-0.2-0.4-0.3-0.5c-0.4-0.5-0.7-1-1-1.5c-0.3-0.5-0.6-1-1-1.6c0.1-0.3,0.1-0.5,0.1-0.7
			c0-0.1,0-0.3,0.1-0.4c0-0.1,0-0.2,0.1-0.3c0.2-0.4,0.5-0.8,0.7-1.1c0.2-0.3,0.3-0.6,0.4-0.8c0.1-0.2,0.2-0.4,0.3-0.6
			c0.1-0.1,0.2-0.1,0.2-0.2c0.1-0.1,0.1-0.2,0.2-0.2c0-0.2,0.1-0.4,0.2-0.5c0.1-0.1,0.2-0.3,0.2-0.5c0.2-0.1,0.3-0.3,0.3-0.4
			c0.2-0.2,0.4-0.4,0.4-0.7c0.1-0.1,0.3-0.3,0.4-0.5c0.1-0.2,0.2-0.4,0.3-0.6c0.2-0.2,0.4-0.4,0.5-0.7c0.1-0.1,0.2-0.2,0.2-0.3
			c0.1-0.1,0.1-0.2,0.2-0.3c0.1-0.2,0.3-0.4,0.3-0.6c0.1-0.2,0.2-0.3,0.3-0.5c0.1,0,0.2,0,0.2-0.1s0.1-0.1,0.2-0.1
			c0-0.2,0-0.3,0.1-0.4c0,0,0.1,0,0.2-0.1c0.1,0,0.1-0.1,0.1-0.1c0-0.2,0-0.4,0-0.4c0.1,0,0.1-0.1,0.1-0.1c0.2,0,0.3,0.1,0.4,0.1
			c0.1,0,0.2,0.1,0.4,0.2c0.2,0,0.3,0,0.4,0.1c0.1,0.1,0.2,0.1,0.2,0.2c0.1,0.1,0.1,0.1,0.2,0.2c0,0.1,0.1,0.1,0.2,0.2
			c0.1,0.2,0.3,0.4,0.5,0.7C97,5.6,97.1,5.8,97.3,6c0.2,0.3,0.4,0.5,0.6,0.8c0.2,0.2,0.4,0.5,0.6,0.8c0.1,0.1,0.2,0.3,0.3,0.5
			c0.1,0.2,0.3,0.5,0.5,0.7c0.2,0.3,0.4,0.5,0.5,0.7c0.1,0.2,0.2,0.3,0.3,0.4c0.1,0.1,0.2,0.3,0.4,0.5c0.2,0.3,0.4,0.5,0.6,0.8
			c0.2,0.3,0.4,0.6,0.6,0.8c0.2,0.3,0.3,0.4,0.4,0.5c0.2,0.3,0.4,0.5,0.5,0.7C102.7,13.4,102.8,13.6,102.8,13.8z M96.5,19
			c0.2-0.3,0.4-0.5,0.5-0.8c0.1-0.2,0.2-0.4,0.3-0.7c0.2-0.2,0.3-0.4,0.3-0.5s0.1-0.2,0.1-0.3c0.1-0.2,0.3-0.4,0.5-0.7
			c0.2-0.2,0.3-0.5,0.4-0.7c0.1-0.1,0.2-0.2,0.2-0.3c0.1-0.1,0.1-0.2,0.2-0.3c-0.1-0.4-0.2-0.7-0.4-0.9c-0.1-0.2-0.3-0.4-0.4-0.6
			c-0.1-0.1-0.1-0.2-0.2-0.3s-0.1-0.2-0.2-0.3c-0.1-0.1-0.1-0.1-0.2-0.2c0-0.1-0.1-0.1-0.2-0.2c0-0.1-0.1-0.2-0.2-0.4
			c-0.1-0.1-0.1-0.2-0.2-0.2c-0.1-0.1-0.1-0.2-0.2-0.3c-0.1-0.1-0.2-0.2-0.3-0.3c-0.1-0.1-0.2-0.3-0.3-0.4c-0.1-0.2-0.2-0.3-0.3-0.4
			s-0.2-0.3-0.2-0.3c0-0.1-0.1-0.2-0.1-0.2c0-0.1-0.1-0.1-0.1-0.2c-0.1-0.1-0.2-0.2-0.3-0.3s-0.2-0.2-0.3-0.3C95,9,95,9,94.9,9
			c0,0-0.1,0-0.1,0.1c-0.1,0.2-0.3,0.5-0.4,0.7c-0.2,0.2-0.3,0.4-0.5,0.7c-0.1,0.2-0.3,0.4-0.4,0.7c-0.1,0.2-0.3,0.5-0.4,0.7
			c-0.1,0.1-0.2,0.3-0.3,0.4c-0.1,0.1-0.2,0.3-0.3,0.4c-0.1,0.1-0.2,0.3-0.2,0.4c-0.1,0.1-0.1,0.3-0.2,0.4c-0.1,0.2-0.3,0.4-0.4,0.5
			c-0.1,0.1-0.2,0.3-0.3,0.5c0.1,0.1,0.1,0.3,0.3,0.5s0.2,0.4,0.4,0.6s0.2,0.4,0.3,0.5c0.1,0.2,0.2,0.3,0.2,0.3
			c0.1,0.1,0.3,0.3,0.4,0.4c0.1,0.2,0.2,0.3,0.4,0.5c0.1,0.1,0.2,0.3,0.2,0.4s0.2,0.2,0.3,0.4c0.1,0.1,0.2,0.3,0.4,0.6
			c0.1,0.2,0.3,0.5,0.4,0.8c0.1,0.3,0.3,0.5,0.4,0.7c0.1,0.2,0.3,0.4,0.4,0.4c0.2-0.2,0.3-0.4,0.5-0.7C96.1,19.5,96.3,19.2,96.5,19z
			"/>
		<path fill="#FFFFFF" d="M104.8,25.2c-0.1-0.1-0.1-0.2-0.1-0.3c0-0.1,0-0.2,0-0.2c0-0.1,0-0.1,0-0.2c0.1-0.4,0.1-0.9,0.1-1.3
			c0-0.4,0-0.9,0.1-1.3c0-0.3,0-0.5,0-0.8c0-0.3,0-0.5,0-0.8c0-1.5,0-3.1-0.1-4.6s-0.1-3.1-0.1-4.6c0-1.1,0-2.2,0.1-3.2
			c0-1.1,0.1-2.2,0.1-3.3c0.2-0.1,0.4-0.1,0.6-0.1c0.2,0,0.4-0.1,0.6-0.2c0.1,0,0.2,0,0.3,0c0.1,0,0.2,0,0.3,0
			c0.2,0,0.4-0.1,0.6-0.2c0.2-0.1,0.4-0.2,0.6-0.3c0.1,0,0.2,0.1,0.2,0c0,0,0.1,0,0.2,0s0.2,0.1,0.4,0.2c0.2,0.1,0.4,0.3,0.6,0.4
			c0.2,0.2,0.4,0.3,0.6,0.5c0.2,0.1,0.3,0.2,0.4,0.3c0.5,0.4,0.9,0.7,1.2,1.2c0.4,0.4,0.7,0.8,1.1,1.3c0.3,0.4,0.7,0.9,1.1,1.3
			c0.4,0.4,0.8,0.8,1.1,1.2c0.1,0.1,0.3,0.3,0.4,0.4c0.1,0.1,0.3,0.2,0.4,0.4c0.1,0.1,0.1,0.2,0.2,0.2c0,0.1,0.1,0.2,0.2,0.3
			c0.1,0.1,0.2,0.2,0.4,0.3c0.1,0.1,0.3,0.2,0.4,0.3c0.1,0.1,0.2,0.2,0.4,0.4c0.2,0.2,0.3,0.4,0.3,0.5c0,0.1,0,0.1-0.1,0.2
			s-0.1,0.1-0.1,0.2c0,0.1,0,0.1,0,0.2c0,0.1,0,0.2,0,0.2c-0.2,0.1-0.3,0.2-0.3,0.3c0,0,0,0.1-0.1,0.1c-0.1,0.1-0.1,0.1-0.2,0.2
			c-0.1,0-0.1,0.1-0.2,0.2c0,0.1-0.1,0.1,0,0.2c0,0.1,0,0.1,0,0.2c-0.1,0.2-0.2,0.4-0.4,0.6c-0.2,0.2-0.4,0.4-0.5,0.6
			c-0.2,0.3-0.4,0.7-0.6,1c-0.2,0.3-0.4,0.7-0.7,1c-0.1,0.1-0.2,0.3-0.3,0.4c-0.1,0.1-0.2,0.3-0.3,0.4c-0.1,0.1-0.2,0.2-0.2,0.3
			c-0.1,0.1-0.2,0.3-0.2,0.4c-0.2,0.3-0.4,0.5-0.6,0.8c-0.2,0.2-0.4,0.5-0.6,0.8c-0.2,0.3-0.5,0.6-0.7,0.9s-0.5,0.6-0.7,0.9
			c-0.2,0.3-0.4,0.6-0.6,0.9c-0.2,0.3-0.5,0.5-0.7,0.8c-0.1,0.1-0.2,0.1-0.3,0.2c-0.1,0.1-0.2,0.2-0.3,0.2c-0.1,0-0.1,0-0.2-0.1
			c0-0.1-0.1-0.1-0.2-0.1c0,0-0.1,0-0.2,0s-0.2,0-0.3,0.1l-0.5,0.1c-0.3,0.1-0.5,0.2-0.6,0.2c-0.1,0-0.3,0-0.4,0
			c-0.1,0-0.1,0-0.2,0.1c0,0-0.1,0.1-0.2,0.1c-0.1,0-0.2-0.1-0.3-0.2C105,25.2,104.9,25.2,104.8,25.2z M113.1,13.2
			c0-0.1-0.1-0.2-0.3-0.4s-0.3-0.3-0.4-0.4c-0.1-0.1-0.3-0.2-0.5-0.3c-0.2-0.1-0.3-0.2-0.4-0.3c-0.1-0.1-0.2-0.2-0.3-0.3
			c-0.1-0.1-0.2-0.2-0.3-0.3c-0.3-0.4-0.7-0.7-1-1.1c-0.3-0.4-0.6-0.8-0.9-1.2c-0.2-0.1-0.3-0.2-0.5-0.4c-0.1-0.1-0.3-0.3-0.5-0.4
			c0,0.1-0.1,0.2,0,0.3c0,0.1,0,0.2,0,0.3c0,0.4,0,0.8-0.1,1.2c0,0.4-0.1,0.8-0.1,1.2c0,1,0,2,0.1,3c0,1,0.1,1.9,0.1,2.9
			c0,0.4,0,0.7,0,1.1c0,0.4,0,0.7,0.1,1.1c0,0.1-0.1,0.2-0.1,0.3s0,0.2,0.1,0.4c0.1-0.1,0.3-0.2,0.4-0.3c0.1-0.1,0.2-0.3,0.3-0.4
			c0.3-0.4,0.6-0.8,0.9-1.2c0.3-0.4,0.6-0.8,0.9-1.3c0.2-0.3,0.4-0.6,0.6-0.8c0.2-0.3,0.4-0.6,0.6-0.8c0.1-0.1,0.1-0.2,0.3-0.4
			c0.1-0.2,0.2-0.4,0.4-0.6s0.2-0.4,0.3-0.5C113,13.3,113.1,13.2,113.1,13.2z"/>
		<path fill="#FFFFFF" d="M128.4,21c0.1,0.2,0.3,0.5,0.3,0.7c0.1,0.2,0.1,0.4,0.1,0.5c0,0.1,0,0.2-0.1,0.3c0,0.1-0.1,0.2-0.2,0.3
			c-0.7,0.3-1.5,0.6-2.2,0.9c-0.7,0.3-1.5,0.5-2.2,0.8c-0.2,0.1-0.4,0.1-0.5,0.2c-0.2,0.1-0.4,0.1-0.6,0.2c0,0-0.1,0.1-0.2,0.1
			c-0.1,0-0.2,0.1-0.3,0.1s-0.2,0.1-0.3,0.1c-0.1,0-0.2,0-0.2,0c0-0.1-0.1-0.1-0.1-0.2c0,0-0.1,0-0.1-0.1c-0.1,0-0.2,0-0.2,0.1
			c0,0.1-0.1,0.1-0.2,0.2c-0.1,0-0.2,0-0.2,0c-0.1,0-0.1,0-0.2,0c-0.1,0-0.3,0.1-0.4,0.2c-0.1,0.1-0.3,0.2-0.4,0.2
			c-0.3-0.1-0.4-0.1-0.5-0.1s-0.1,0-0.2,0c-0.1-0.1-0.2-0.3-0.2-0.5c0-0.2,0-0.4-0.2-0.5c0-0.2,0-0.4-0.1-0.4c0,0-0.1-0.1-0.1-0.1
			c0-0.1,0-0.2,0-0.4c0-0.1,0-0.2,0-0.4c0.1-0.3,0.1-0.6,0.1-0.9c0-0.3,0-0.6,0-0.9c0-0.1,0-0.2,0-0.3c0-0.1,0-0.2,0-0.3
			c0-0.3,0-0.4,0.1-0.5c0-0.1,0.1-0.1,0.1-0.2c0-0.1,0-0.3,0-0.4c0-0.1,0-0.3,0-0.4c0-0.3,0-0.5,0-0.8c0-0.2,0-0.5,0-0.8
			c0-0.7,0-1.4-0.1-2.1c-0.1-0.7-0.1-1.4-0.1-2.1c0-0.9,0-1.7-0.1-2.5c-0.1-0.8-0.1-1.7-0.1-2.5c0-0.1,0-0.4,0-0.6
			c0-0.3,0-0.5,0-0.8s0-0.6,0-0.8c0-0.3,0-0.4,0-0.6c0,0,0.1,0,0.2-0.1c0.1,0,0.2-0.1,0.2-0.1c0.1,0,0.2,0,0.2,0.1
			c0.1,0,0.1,0.1,0.2,0.1c0.3,0,0.5-0.1,0.6-0.1s0.1,0,0.2,0c0.1,0,0.2,0,0.3,0.1c0.1,0.1,0.1,0.1,0.2,0.1c0.3-0.1,0.5-0.1,0.5,0
			c0,0.1,0.1,0.1,0.2,0.1c0.2-0.1,0.4-0.1,0.4-0.1c0.1,0,0.1,0,0.2,0c0.1,0,0.2,0,0.3-0.1c0.1-0.1,0.2-0.1,0.3-0.2
			c0.3-0.1,0.6-0.2,0.8-0.3c0.3-0.2,0.5-0.3,0.6-0.3c0.1-0.1,0.3-0.1,0.4-0.2c0.3-0.1,0.6-0.3,0.9-0.4c0.3-0.1,0.6-0.3,0.9-0.4
			c0.1,0,0.1,0,0.2,0c0.1,0,0.1,0,0.2-0.1c0.1,0,0.1,0,0.2,0s0.1,0,0.2,0c0.2,0.1,0.3,0.1,0.4,0.1c0.1,0.1,0.1,0.2,0.2,0.3
			c0.1,0.1,0.1,0.2,0.2,0.3c0.1,0.2,0.2,0.2,0.2,0.2c0,0.1,0,0.1-0.1,0.2c-0.1,0.1-0.1,0.1-0.1,0.2c0.1,0.3,0.3,0.5,0.4,0.7
			s0.1,0.4,0.1,0.5c0,0.1,0,0.2-0.1,0.3c0,0.1-0.1,0.2-0.1,0.3c-0.7,0.3-1.4,0.7-2.1,1c-0.7,0.3-1.4,0.6-2.2,1
			c-0.2,0.1-0.4,0.2-0.5,0.2c-0.2,0.1-0.4,0.1-0.6,0.2c0,0-0.1,0.1-0.2,0.1c-0.1,0-0.2,0-0.3,0c0,0.3,0.1,0.6,0.1,0.9
			c0,0.3,0,0.6,0,0.9c0,0.3,0.1,0.5,0.1,0.8c0,0.3,0.1,0.6,0.1,0.8c0.6-0.3,1.2-0.5,1.8-0.8c0.6-0.3,1.2-0.5,1.8-0.8
			c0.1,0,0.2,0,0.3,0.1c0.1,0,0.2,0,0.3,0.1c0,0,0.1,0.1,0.1,0.1s0.1,0.1,0.1,0.1c0,0.1,0,0.2,0.2,0.4c0.1,0.2,0.2,0.3,0.2,0.4
			c0,0.1,0,0.2,0.1,0.3c0,0,0.1,0.1,0.1,0.2c0,0.2,0,0.3,0,0.3c0.1,0.1,0.2,0.2,0.2,0.3c0.1,0.1,0.1,0.2,0.1,0.3
			c-0.3,0.3-0.5,0.5-0.8,0.6s-0.5,0.2-0.8,0.3c-0.1,0-0.2,0.1-0.3,0.2c-0.1,0.1-0.2,0.1-0.3,0.2c-0.1,0.1-0.3,0.1-0.4,0.2
			c-0.1,0-0.3,0.1-0.4,0.2c-0.2,0.1-0.5,0.3-0.7,0.4c-0.2,0.2-0.5,0.3-0.8,0.3c-0.2,0.1-0.3,0.1-0.4,0.2c-0.1,0.1-0.2,0.2-0.3,0.3
			v0.8V19c0,0.2,0,0.4,0,0.6s0,0.4,0,0.6c0,0.2-0.1,0.3-0.1,0.5v0.4c0.1,0,0.2-0.1,0.3-0.1c0.1,0,0.2-0.1,0.3-0.1c0.1,0,0.1,0,0.2,0
			c0.1,0,0.1,0,0.2-0.1c0.1,0,0.2,0,0.2-0.1s0.1,0,0.2-0.1c0.3-0.1,0.5-0.2,0.6-0.3c0.1,0,0.3-0.1,0.4-0.2c0.3-0.1,0.6-0.2,0.9-0.3
			c0.3-0.1,0.6-0.2,0.9-0.3c0.2,0,0.3,0,0.4-0.1c0.1,0,0.2,0,0.2,0.1s0.1,0,0.2,0c0.2,0.2,0.4,0.4,0.4,0.5s0.1,0.2,0.2,0.3
			c0.1,0.2,0.2,0.2,0.2,0.2c0,0,0,0.1-0.1,0.2C128.5,20.8,128.4,20.9,128.4,21z"/>
	</g>
	<g>
		<path fill="#FFFFFF" d="M5,4.3h16.2v4.6h-9.6v3.7h8.2v4.3h-8.2v8.7H5V4.3z"/>
		<path fill="#FFFFFF" d="M25.1,4.3h6.6v21.3h-6.6V4.3z"/>
		<path fill="#FFFFFF" d="M35.2,18.5l6.3-0.4c0.1,1,0.4,1.8,0.8,2.3c0.7,0.9,1.6,1.3,2.9,1.3c0.9,0,1.7-0.2,2.2-0.7
			c0.5-0.4,0.8-1,0.8-1.5c0-0.6-0.2-1-0.7-1.5c-0.5-0.4-1.6-0.8-3.4-1.2c-2.9-0.6-4.9-1.5-6.2-2.6c-1.2-1.1-1.9-2.4-1.9-4.1
			C36,9,36.3,8,37,7c0.6-1,1.6-1.7,2.9-2.3c1.3-0.6,3-0.8,5.2-0.8c2.7,0,4.8,0.5,6.2,1.5c1.4,1,2.3,2.6,2.5,4.8l-6.2,0.4
			c-0.2-1-0.5-1.7-1-2.1c-0.5-0.4-1.3-0.7-2.2-0.7c-0.8,0-1.3,0.2-1.7,0.5c-0.4,0.3-0.6,0.7-0.6,1.2c0,0.3,0.2,0.6,0.5,0.9
			c0.3,0.3,1,0.5,2.2,0.8c2.9,0.6,4.9,1.2,6.2,1.9s2.1,1.4,2.7,2.4c0.6,0.9,0.8,2,0.8,3.1c0,1.4-0.4,2.6-1.1,3.8
			c-0.8,1.2-1.8,2-3.2,2.6s-3.1,0.9-5.1,0.9c-3.6,0-6.1-0.7-7.5-2.1S35.4,20.6,35.2,18.5z"/>
		<path fill="#FFFFFF" d="M57.8,4.3h17.6v4.5h-11v3.4h10.2v4.3H64.4v4.2h11.3v4.8H57.8V4.3z"/>
	</g></svg>
